<svg width="107" height="52" viewBox="0 0 107 52" fill="none" xmlns="http://www.w3.org/2000/svg">
<path d="M60.7916 30.7711C62.936 28.8841 63.6865 29.413 63.7937 29.9133C64.3298 30.3784 66.5813 28.9484 70.6714 26.1608L70.6555 27.5587C70.6555 33.6659 66.7957 42.136 65.6164 44.8164C64.1539 48.1401 61.9353 50.2487 60.7916 51.035C59.3621 51.9642 56.6316 53.1149 55.0019 48.9978C54.1442 43.2082 55.8597 42.8865 56.503 44.3875C55.8168 53.2222 59.8982 50.6776 61.971 48.2473C64.6514 45.8886 67.7607 36.9527 68.1895 35.0597C68.8697 32.0577 69.4332 29.3861 69.2617 28.734C68.2705 29.413 67.2565 29.8859 66.5813 30.3422C64.5442 31.3072 58.1112 33.1298 60.7916 30.7711Z" fill="white"/>
<path d="M70.1403 21.9525C71.2124 19.0577 75.3939 19.701 76.466 21.3092C76.5445 22.1608 75.4749 24.6832 70.5691 27.9608V26.3752C72.9209 24.2487 77.6246 21.3092 73.7648 21.3092C70.0053 21.3092 71.0049 26.2239 70.1403 26.9113L69.2617 27.4155C69.3475 24.731 69.8832 22.655 70.1403 21.9525Z" fill="white"/>
<path d="M16.7257 35.703C17.6692 35.6172 17.6907 36.0961 17.5835 36.3463C20.0494 34.9525 27.9834 32.3793 33.0226 24.8742C35.3385 23.2445 35.1669 25.1958 34.202 25.8391L32.3793 28.3051C28.1979 35.3814 31.736 33.237 31.736 33.237C31.736 33.237 36.6679 30.9855 37.7401 29.9133C38.5978 29.0556 39.3126 29.9848 39.5628 30.5566C43.1414 28.3265 44.9236 28.8412 44.9236 29.1628C46.4246 33.237 52.5359 27.769 56.6102 26.268C57.182 26.125 58.8832 25.7105 61.1132 25.1958C63.2576 24.1237 63.5792 25.8391 62.1854 26.268C60.7916 26.6968 59.505 27.0185 56.2885 27.769C50.2844 31.3071 49.105 31.8432 46.8535 31.9504C44.6019 32.0577 44.3875 30.4494 43.9587 30.235C43.5298 30.0205 42.2432 30.6638 41.3855 31.3071C38.898 32.4222 38.2047 31.7717 38.169 31.3071C36.9896 32.1291 34.3092 33.3871 33.0226 33.9875C28.7339 35.9889 28.3766 32.9869 29.0556 31.3071C27.8405 32.0934 24.9385 33.9232 23.0515 34.9525C18.5484 37.7401 17.5835 37.5257 15.868 37.9545C14.1525 38.3834 14.0453 36.7752 15.6536 36.3463C17.2618 35.9174 16.0824 35.703 16.7257 35.703Z" fill="white"/>
<path d="M86.5235 26.4824C82.8782 27.1257 80.305 32.4865 77.4101 30.5566C76.874 30.0205 76.5524 30.5566 76.5524 31.0927C76.5524 31.6288 76.9813 32.0577 79.0184 32.0577C80.6481 32.0577 83.0568 30.0563 84.0575 29.0556C86.2019 26.654 88.1318 27.626 89.74 28.5195C90.1671 28.7568 92.3132 29.4845 94.8864 27.6618C95.6369 27.1302 96.171 27.1269 98.3173 25.8391C99.3895 25.1958 103.356 25.4102 105.715 25.4102C107.602 25.4102 107.002 24.6955 106.466 24.3381C101.641 23.9092 99.6039 23.882 97.4596 24.7669C90.5977 29.4489 89.4183 26.4824 86.5235 26.4824Z" fill="white"/>
<path d="M41.3767 0.284953C44.8934 -0.915868 43.3066 2.10764 42.02 1.46433C41.3767 1.46433 34.7293 6.18185 31.5128 8.75504C28.7967 10.7921 24.265 15.2738 27.8675 16.9035C41.9128 22.3715 40.519 22.9076 41.3767 23.4437C42.2344 23.9797 43.4138 27.6251 42.4489 29.1261C40.1973 34.3797 38.2762 34.9525 34.3092 37.3112C30.0881 39.8211 20.684 43.0642 19.719 43.4931C18.7541 43.922 8.99741 46.0663 4.92319 46.2807C0.848972 46.4952 -0.866488 44.6725 0.420107 41.9921C1.7067 39.3117 5.6737 35.988 7.60359 34.5942C9.53349 33.2003 13.0716 31.4849 13.8221 30.9488C14.4225 30.5199 18.6469 28.8402 20.684 28.054C21.4702 27.8038 23.4502 27.2391 25.0798 26.9818C26.7095 26.7245 26.3307 27.5894 25.9376 28.054C24.7582 28.2684 21.992 28.8474 20.3623 29.4478C18.7326 30.0482 14.8228 31.9137 13.0716 32.7715C11.8922 33.3433 8.76153 35.1731 5.6737 37.9179C-3.01082 46.4952 2.24278 45.1013 10.0696 44.2436C16.331 43.5574 23.2572 41.1701 25.9376 40.0622C29.7974 38.2395 39.3926 34.3058 40.8406 29.8766C42.6633 24.3014 39.2324 22.8004 31.5128 19.9055C23.7932 17.0107 24.2312 15.6828 25.0798 13.8309C26.1608 11.4721 36.9808 1.78598 41.3767 0.284953Z" fill="white"/>
</svg>
